#!OML:ASF G:\JayActor3\Patient Classification 1\Patient 1\Session 6\male.ASF
:FULLY-SPECIFIED
:DEGREES
3077
root 7.23079 15.3519 -20.7085 191.697 -65.8403 -178.187
lowerback 35.1436 0.487794 2.75225
upperback 15.2714 -1.22596 -1.93303
thorax -1.02678 -1.36247 -3.06531
lowerneck -2.06167 2.38763 3.9119
upperneck -32.1163 1.17265 -2.25558
head -9.78207 -0.677875 -1.40033
rclavicle -6.55989e-014 2.14687e-014
rhumerus 21.4855 29.2238 -24.2783
rradius 121.548
rwrist -54.2776
rhand -42.2483 -12.4514
rfingers 7.12502
rthumb -15.1344 -41.8781
lclavicle -6.55989e-014 2.14687e-014
lhumerus -10.9801 -12.4505 66.766
lradius 64.3078
lwrist 29.2275
lhand -16.7887 11.4481
lfingers 7.12502
lthumb 9.43923 41.2167
rfemur -50.1158 -9.60401 25.2865
rtibia 62.4866
rfoot -28.0901 -20.8614
rtoes -4.91303
lfemur -50.5079 11.1339 -24.2477
ltibia 53.8207
lfoot -15.7654 0.0425031
ltoes 2.71292
3078
root 7.22872 15.3525 -20.7101 191.705 -65.8135 -178.184
lowerback 35.135 0.49253 2.75166
upperback 15.2767 -1.22202 -1.93668
thorax -1.01798 -1.36067 -3.07038
lowerneck -2.04611 2.38025 3.939
upperneck -32.1071 1.16498 -2.26032
head -9.78146 -0.68329 -1.40635
rclavicle 4.49253e-014 6.81831e-014
rhumerus 21.511 29.0661 -24.265
rradius 121.529
rwrist -54.3854
rhand -42.2683 -12.4458
rfingers 7.12502
rthumb -15.1536 -41.871
lclavicle 4.49253e-014 6.81831e-014
lhumerus -10.9786 -12.4797 66.7621
lradius 64.2855
lwrist 29.2212
lhand -16.7859 11.4295
lfingers 7.12502
lthumb 9.4419 41.198
rfemur -50.1153 -9.58556 25.2889
rtibia 62.4804
rfoot -28.0986 -20.844
rtoes -4.87866
lfemur -50.5055 11.1401 -24.2398
ltibia 53.8215
lfoot -15.7749 0.0620831
ltoes 2.70284
3079
root 7.22666 15.3531 -20.7117 191.71 -65.7873 -178.178
lowerback 35.1233 0.496712 2.75644
upperback 15.2826 -1.21713 -1.94103
thorax -1.00741 -1.35802 -3.07938
lowerneck -2.05519 2.37467 3.96506
upperneck -32.0772 1.15964 -2.26389
head -9.76851 -0.686976 -1.41168
rclavicle -7.43455e-014 -9.14409e-015
rhumerus 21.5329 28.9019 -24.2545
rradius 121.511
rwrist -54.4984
rhand -42.2848 -12.4531
rfingers 7.12502
rthumb -15.1695 -41.877
lclavicle -7.43455e-014 -9.14409e-015
lhumerus -10.9749 -12.5113 66.7555
lradius 64.2661
lwrist 29.2156
lhand -16.7774 11.4062
lfingers 7.12502
lthumb 9.4501 41.1743
rfemur -50.1169 -9.56843 25.2935
rtibia 62.4755
rfoot -28.1084 -20.8234
rtoes -4.83248
lfemur -50.505 11.1431 -24.2296
ltibia 53.8241
lfoot -15.7842 0.085198
ltoes 2.6908
3080
root 7.22445 15.3537 -20.7129 191.717 -65.7635 -178.178
lowerback 35.1131 0.495499 2.76271
upperback 15.2893 -1.21857 -1.94381
thorax -0.996832 -1.35855 -3.08552
lowerneck -2.07347 2.37081 3.97914
upperneck -32.0422 1.15638 -2.26325
head -9.75196 -0.688723 -1.41346
rclavicle 1.31198e-014 -3.4191e-014
rhumerus 21.5434 28.7784 -24.2637
rradius 121.5
rwrist -54.5659
rhand -42.3046 -12.4562
rfingers 7.12502
rthumb -15.1885 -41.8787
lclavicle 1.31198e-014 -3.4191e-014
lhumerus -10.9774 -12.5266 66.7536
lradius 64.2516
lwrist 29.2073
lhand -16.7579 11.3824
lfingers 7.12502
lthumb 9.46898 41.1497
rfemur -50.1145 -9.56091 25.2951
rtibia 62.4709
rfoot -28.1103 -20.8041
rtoes -4.80877
lfemur -50.4981 11.1398 -24.2216
ltibia 53.8256
lfoot -15.7965 0.113535
ltoes 2.67122
3081
root 7.22224 15.3543 -20.7142 191.729 -65.7391 -178.181
lowerback 35.0983 0.492347 2.76366
upperback 15.2963 -1.22384 -1.94381
thorax -0.984516 -1.36133 -3.08485
lowerneck -2.0956 2.36635 3.98446
upperneck -32.0071 1.1521 -2.25767
head -9.73491 -0.690715 -1.41181
rclavicle 1.43125e-014 1.96797e-014
rhumerus 21.5287 28.7191 -24.3124
rradius 121.495
rwrist -54.5577
rhand -42.3217 -12.4619
rfingers 7.12502
rthumb -15.205 -41.8832
lclavicle 1.43125e-014 1.96797e-014
lhumerus -10.986 -12.5245 66.7549
lradius 64.2434
lwrist 29.2002
lhand -16.7339 11.3643
lfingers 7.12502
lthumb 9.4921 41.1305
rfemur -50.1155 -9.5543 25.2964
rtibia 62.4672
rfoot -28.1084 -20.789
rtoes -4.79898
lfemur -50.4931 11.1344 -24.2148
ltibia 53.8272
lfoot -15.8087 0.146017
ltoes 2.64067
3082
root 7.21998 15.355 -20.7152 191.755 -65.7151 -178.198
lowerback 35.0807 0.486233 2.75648
upperback 15.3036 -1.23512 -1.94108
thorax -0.971179 -1.36756 -3.07522
lowerneck -2.11447 2.36171 3.981
upperneck -31.9789 1.14663 -2.2503
head -9.7212 -0.692959 -1.40791
rclavicle 1.19271e-015 -1.59028e-015
rhumerus 21.5023 28.715 -24.3797
rradius 121.494
rwrist -54.4939
rhand -42.3311 -12.4475
rfingers 7.12502
rthumb -15.2141 -41.8681
lclavicle 1.19271e-015 -1.59028e-015
lhumerus -11.0002 -12.5003 66.7606
lradius 64.2439
lwrist 29.2014
lhand -16.6977 11.3685
lfingers 7.12502
lthumb 9.527 41.1332
rfemur -50.1186 -9.55293 25.2917
rtibia 62.4642
rfoot -28.0992 -20.7781
rtoes -4.80834
lfemur -50.4868 11.1255 -24.2151
ltibia 53.8261
lfoot -15.8219 0.181201
ltoes 2.60414
3083
root 7.21784 15.3556 -20.7163 191.782 -65.6884 -178.215
lowerback 35.0623 0.479146 2.74328
upperback 15.3106 -1.24931 -1.93512
thorax -0.958038 -1.37574 -3.05814
lowerneck -2.1243 2.35723 3.97019
upperneck -31.9633 1.14045 -2.24216
head -9.71392 -0.695446 -1.40247
rclavicle 2.94201e-014 1.05753e-013
rhumerus 21.4406 28.7939 -24.4942
rradius 121.501
rwrist -54.3475
rhand -42.3364 -12.4034
rfingers 7.12502
rthumb -15.2192 -41.8236
lclavicle 2.94201e-014 1.05753e-013
lhumerus -11.0189 -12.4604 66.7692
lradius 64.2492
lwrist 29.2003
lhand -16.6643 11.3844
lfingers 7.12502
lthumb 9.55925 41.1475
rfemur -50.1236 -9.54927 25.2874
rtibia 62.4619
rfoot -28.0839 -20.7751
rtoes -4.84068
lfemur -50.4808 11.1188 -24.216
ltibia 53.8233
lfoot -15.8348 0.216987
ltoes 2.56401
3084
root 7.21581 15.3563 -20.7172 191.821 -65.6597 -178.246
lowerback 35.0453 0.472447 2.72854
upperback 15.3173 -1.26357 -1.93078
thorax -0.945675 -1.38396 -3.04188
lowerneck -2.12825 2.35162 3.96142
upperneck -31.9577 1.13192 -2.23528
head -9.71158 -0.699708 -1.3977
rclavicle 1.59028e-015 -4.1546e-014
rhumerus 21.3743 28.8796 -24.6068
rradius 121.512
rwrist -54.2091
rhand -42.3484 -12.3716
rfingers 7.12502
rthumb -15.2308 -41.7909
lclavicle 1.59028e-015 -4.1546e-014
lhumerus -11.0331 -12.4213 66.7769
lradius 64.2567
lwrist 29.2031
lhand -16.6405 11.3989
lfingers 7.12502
lthumb 9.58224 41.161
rfemur -50.1305 -9.54671 25.2773
rtibia 62.4599
rfoot -28.0673 -20.7734
rtoes -4.87554
lfemur -50.4741 11.1128 -24.2237
ltibia 53.8175
lfoot -15.8465 0.251947
ltoes 2.52464
3085
root 7.21384 15.357 -20.7181 191.869 -65.6296 -178.287
lowerback 35.0306 0.467063 2.71651
upperback 15.3252 -1.27584 -1.92945
thorax -0.932857 -1.391 -3.03081
lowerneck -2.13829 2.34758 3.95769
upperneck -31.9517 1.12503 -2.23042
head -9.70782 -0.703704 -1.3946
rclavicle 6.36111e-015 2.54444e-014
rhumerus 21.2908 28.9739 -24.7307
rradius 121.527
rwrist -54.0677
rhand -42.3627 -12.3488
rfingers 7.12502
rthumb -15.2446 -41.7671
lclavicle 6.36111e-015 2.54444e-014
lhumerus -11.039 -12.39 66.7812
lradius 64.2655
lwrist 29.2074
lhand -16.63 11.4074
lfingers 7.12502
lthumb 9.59234 41.169
rfemur -50.1356 -9.54689 25.2627
rtibia 62.4578
rfoot -28.0503 -20.7674
rtoes -4.91247
lfemur -50.4647 11.1093 -24.237
ltibia 53.8098
lfoot -15.858 0.285386
ltoes 2.48881
3086
root 7.21197 15.3578 -20.719 191.909 -65.5959 -178.322
lowerback 35.0184 0.463519 2.70703
upperback 15.3331 -1.28519 -1.92704
thorax -0.920628 -1.39664 -3.02083
lowerneck -2.14314 2.3453 3.95138
upperneck -31.9529 1.11965 -2.2288
head -9.70765 -0.706624 -1.39236
rclavicle -5.12864e-014 7.35503e-014
rhumerus 21.227 29.0324 -24.822
rradius 121.543
rwrist -53.9785
rhand -42.3737 -12.3434
rfingers 7.12502
rthumb -15.2551 -41.7609
lclavicle -5.12864e-014 7.35503e-014
lhumerus -11.0432 -12.3593 66.7876
lradius 64.2746
lwrist 29.2071
lhand -16.6283 11.3984
lfingers 7.12502
lthumb 9.59398 41.16
rfemur -50.1386 -9.54289 25.2504
rtibia 62.455
rfoot -28.0375 -20.7602
rtoes -4.93972
lfemur -50.4537 11.1116 -24.2479
ltibia 53.8013
lfoot -15.8688 0.315898
ltoes 2.46362
3087
root 7.21019 15.3584 -20.72 191.946 -65.5603 -178.354
lowerback 35.0078 0.462869 2.70515
upperback 15.3419 -1.28906 -1.92767
thorax -0.907683 -1.39909 -3.01975
lowerneck -2.15801 2.34452 3.95296
upperneck -31.9478 1.11638 -2.22911
head -9.70312 -0.70906 -1.39226
rclavicle 3.1408e-014 -6.1822e-014
rhumerus 21.1789 29.0356 -24.8783
rradius 121.558
rwrist -53.9502
rhand -42.3781 -12.3571
rfingers 7.12502
rthumb -15.2594 -41.7743
lclavicle 3.1408e-014 -6.1822e-014
lhumerus -11.0394 -12.3437 66.79
lradius 64.2859
lwrist 29.2103
lhand -16.6401 11.3818
lfingers 7.12502
lthumb 9.58258 41.1439
rfemur -50.1404 -9.53667 25.2391
rtibia 62.4517
rfoot -28.0281 -20.7499
rtoes -4.95106
lfemur -50.4424 11.1187 -24.2583
ltibia 53.7937
lfoot -15.8796 0.344541
ltoes 2.44075
3088
root 7.20843 15.359 -20.7211 191.978 -65.5207 -178.383
lowerback 34.9967 0.46437 2.70004
upperback 15.3515 -1.29143 -1.92554
thorax -0.893496 -1.40121 -3.0146
lowerneck -2.17078 2.34644 3.94641
upperneck -31.9469 1.11678 -2.22784
head -9.70048 -0.709174 -1.39046
rclavicle -2.74323e-014 2.32578e-014
rhumerus 21.1552 29.0158 -24.901
rradius 121.574
rwrist -53.957
rhand -42.378 -12.384
rfingers 7.12502
rthumb -15.2593 -41.8011
lclavicle -2.74323e-014 2.32578e-014
lhumerus -11.0372 -12.321 66.7958
lradius 64.3001
lwrist 29.2102
lhand -16.6496 11.3701
lfingers 7.12502
lthumb 9.57346 41.1326
rfemur -50.1405 -9.52567 25.2288
rtibia 62.4484
rfoot -28.0209 -20.7373
rtoes -4.95412
lfemur -50.4302 11.1323 -24.2678
ltibia 53.7877
lfoot -15.8919 0.371971
ltoes 2.41586
3089
root 7.20667 15.3594 -20.7222 192.002 -65.48 -178.404
lowerback 34.9872 0.464605 2.6968
upperback 15.3594 -1.29446 -1.92171
thorax -0.881658 -1.40364 -3.00835
lowerneck -2.17978 2.34855 3.93455
upperneck -31.9473 1.11811 -2.22371
head -9.69907 -0.708494 -1.38681
rclavicle -6.36111e-014 -3.85642e-014
rhumerus 21.1507 28.9846 -24.895
rradius 121.589
rwrist -53.99
rhand -42.374 -12.4032
rfingers 7.12502
rthumb -15.2555 -41.8206
lclavicle -6.36111e-014 -3.85642e-014
lhumerus -11.04 -12.2947 66.8043
lradius 64.3162
lwrist 29.2084
lhand -16.6642 11.3669
lfingers 7.12502
lthumb 9.55931 41.13
rfemur -50.1391 -9.51341 25.2213
rtibia 62.445
rfoot -28.0153 -20.7214
rtoes -4.95129
lfemur -50.4181 11.1498 -24.2745
ltibia 53.7841
lfoot -15.9057 0.396873
ltoes 2.38926
3090
root 7.20497 15.3599 -20.7234 192.037 -65.438 -178.437
lowerback 34.9771 0.464414 2.6878
upperback 15.3652 -1.29932 -1.91806
thorax -0.872061 -1.40716 -2.99864
lowerneck -2.18122 2.35112 3.92222
upperneck -31.9501 1.12086 -2.21873
head -9.69993 -0.707092 -1.38297
rclavicle 3.4191e-014 3.4191e-014
rhumerus 21.1497 28.9692 -24.8846
rradius 121.607
rwrist -54.0167
rhand -42.3718 -12.4295
rfingers 7.12502
rthumb -15.2534 -41.8471
lclavicle 3.4191e-014 3.4191e-014
lhumerus -11.0471 -12.265 66.8129
lradius 64.3338
lwrist 29.2113
lhand -16.6785 11.3801
lfingers 7.12502
lthumb 9.54552 41.1439
rfemur -50.1404 -9.50162 25.2088
rtibia 62.4431
rfoot -28.0096 -20.7024
rtoes -4.94408
lfemur -50.408 11.1684 -24.2869
ltibia 53.7821
lfoot -15.9187 0.42015
ltoes 2.36742
